<?xml version="1.0" encoding="utf-8"?>
<!-- Generator: Adobe Illustrator 28.0.0, SVG Export Plug-In . SVG Version: 6.00 Build 0)  -->
<svg version="1.1" id="Layer_1" xmlns="http://www.w3.org/2000/svg" xmlns:xlink="http://www.w3.org/1999/xlink" x="0px" y="0px"
	 viewBox="0 0 200 100" style="enable-background:new 0 0 200 100;" xml:space="preserve">
<style type="text/css">
	.st0{fill:#2D62B5;}
	.st1{fill:#00758B;}
	.st2{fill:#F8A714;}
	.st3{fill:#002F56;}
</style>
<g id="ebscohost-logo_00000027604953951588961180000003709822059698311819_">
	<g id="ebscohost-logo_00000135659721462486562810000017804290440231311499_">
		<g>
			<path class="st0" d="M20.5,41.28c0,3.65-4.17,6.61-4.17,6.61s-4.17-2.96-4.17-6.61c0-3.65,4.17-6.61,4.17-6.61
				S20.5,37.63,20.5,41.28z"/>
			<path class="st0" d="M20.5,58.72c0,3.65-4.17,6.61-4.17,6.61s-4.17-2.96-4.17-6.61c0-3.65,4.17-6.61,4.17-6.61
				S20.5,55.07,20.5,58.72z"/>
			<path class="st1" d="M7.61,54.17C3.96,54.17,1,50,1,50s2.96-4.17,6.61-4.17S14.21,50,14.21,50S11.26,54.17,7.61,54.17z"/>
			<rect x="4.83" y="38.57" class="st2" width="5.41" height="5.41"/>
			<rect x="4.83" y="56.01" class="st2" width="5.41" height="5.41"/>
		</g>
		<path class="st3" d="M41.71,57.64v4.35h-17.3V38.01h16.47v4.35H29.27v5.47h9.6v4.35h-9.6v5.47H41.71z"/>
		<path class="st3" d="M62.85,55.22c0,1.29-0.38,2.55-1.08,3.64c-0.77,1.2-1.93,2.1-3.27,2.56c-0.58,0.2-1.17,0.34-1.78,0.43
			c-0.61,0.09-1.23,0.14-1.85,0.15h-9.85V38.01h8.55c1.08-0.01,2.15,0.13,3.18,0.43c0.91,0.26,1.76,0.69,2.5,1.27
			c1.44,1.15,2.27,2.91,2.23,4.76c0.02,0.99-0.24,1.96-0.77,2.8c-0.55,0.82-1.28,1.51-2.14,2.01c1.23,0.41,2.31,1.17,3.11,2.18
			C62.49,52.54,62.9,53.87,62.85,55.22z M49.79,47.83h2.39c0.55,0,1.08-0.02,1.58-0.07c0.37-0.01,0.74-0.1,1.08-0.25
			c0.55-0.23,1.02-0.61,1.35-1.1c0.27-0.41,0.41-0.89,0.41-1.38c0-0.58-0.2-1.14-0.56-1.6c-0.43-0.53-1.02-0.92-1.68-1.1l-0.48-0.09
			c-0.23-0.04-0.45-0.06-0.68-0.07l-0.76-0.04c-0.25-0.02-0.47-0.02-0.67-0.02h-1.98V47.83z M57.92,55.05
			c-0.01-0.55-0.16-1.08-0.45-1.55c-0.33-0.52-0.79-0.95-1.35-1.22c-0.42-0.2-0.86-0.34-1.31-0.41c-0.54-0.09-1.09-0.13-1.64-0.13
			h-3.39v6.16h3.46c0.66,0.01,1.33-0.03,1.98-0.11c0.41-0.05,0.81-0.17,1.19-0.36c0.48-0.24,0.87-0.61,1.15-1.07
			C57.8,55.96,57.92,55.51,57.92,55.05z"/>
		<path class="st3" d="M82.87,55.52c0.03,1.07-0.23,2.13-0.74,3.07c-0.48,0.86-1.14,1.6-1.94,2.18c-0.84,0.59-1.79,1.03-2.79,1.3
			c-1.06,0.29-2.14,0.43-3.24,0.43c-4.36,0-7.42-1.47-9.17-4.42l3.7-2.44c0.53,0.89,1.3,1.61,2.23,2.07
			c0.99,0.48,2.07,0.72,3.17,0.69c1.03,0.05,2.04-0.2,2.93-0.72c0.68-0.39,1.09-1.12,1.09-1.9c0.01-0.46-0.08-0.91-0.25-1.33
			c-0.2-0.42-0.49-0.79-0.86-1.08c-0.52-0.4-1.09-0.73-1.69-0.99c-0.72-0.33-1.63-0.68-2.73-1.07c-0.95-0.33-1.88-0.71-2.79-1.15
			c-0.77-0.37-1.49-0.86-2.12-1.44c-0.58-0.54-1.04-1.19-1.35-1.92c-0.33-0.83-0.49-1.72-0.47-2.61c-0.01-0.93,0.17-1.84,0.52-2.7
			c0.35-0.82,0.89-1.55,1.58-2.12c0.78-0.64,1.68-1.11,2.64-1.39c2.23-0.59,4.56-0.64,6.82-0.14c0.82,0.2,1.6,0.5,2.34,0.92
			c0.63,0.36,1.2,0.81,1.71,1.33c0.47,0.49,0.89,1.02,1.26,1.58l-3.49,2.48c-0.5-0.76-1.15-1.41-1.91-1.91
			c-0.92-0.54-1.98-0.81-3.05-0.76c-0.97-0.06-1.94,0.16-2.79,0.65c-0.59,0.36-0.95,1-0.95,1.69c0.01,0.86,0.47,1.65,1.22,2.07
			c1.15,0.7,2.38,1.27,3.66,1.71c1.1,0.38,2.18,0.84,3.22,1.37c0.85,0.43,1.63,0.98,2.32,1.64c0.61,0.6,1.1,1.31,1.42,2.1
			C82.73,53.61,82.89,54.56,82.87,55.52z"/>
		<path class="st3" d="M104.81,57.21c-0.84,1.66-2.1,3.07-3.66,4.08c-1.53,0.84-3.26,1.26-5,1.2c-1.49,0.02-2.97-0.26-4.35-0.83
			c-1.3-0.54-2.46-1.37-3.4-2.43c-0.99-1.14-1.73-2.47-2.19-3.9c-0.54-1.7-0.8-3.47-0.77-5.25c-0.05-1.9,0.25-3.79,0.87-5.59
			c0.51-1.45,1.31-2.78,2.34-3.92c0.94-1.02,2.1-1.82,3.39-2.33c1.26-0.5,2.61-0.75,3.97-0.75c1.01-0.01,2.01,0.11,2.99,0.38
			c1.69,0.46,3.19,1.47,4.26,2.86c0.56,0.73,1.04,1.53,1.42,2.37l-3.92,2.19c-0.43-0.96-1.03-1.82-1.78-2.55
			c-0.78-0.7-1.81-1.06-2.86-1.01c-0.75,0-1.49,0.17-2.16,0.5c-0.73,0.36-1.35,0.89-1.83,1.55c-0.57,0.79-1.01,1.67-1.28,2.61
			c-0.34,1.2-0.51,2.44-0.49,3.69c-0.01,1.14,0.14,2.28,0.47,3.38c0.27,0.92,0.7,1.79,1.28,2.55c0.51,0.67,1.15,1.22,1.89,1.62
			c0.72,0.38,1.52,0.58,2.34,0.57c0.44,0,0.88-0.05,1.31-0.14c0.43-0.1,0.84-0.28,1.21-0.52c0.42-0.28,0.79-0.62,1.12-1.01
			c0.42-0.5,0.78-1.05,1.08-1.64L104.81,57.21z"/>
		<path class="st3" d="M128.16,54.53c-0.43,1.46-1.14,2.82-2.09,4.01c-0.95,1.19-2.14,2.16-3.49,2.86
			c-3.08,1.46-6.66,1.46-9.74,0.02c-1.34-0.7-2.52-1.68-3.45-2.88c-0.92-1.2-1.62-2.56-2.05-4.01c-0.91-2.96-0.91-6.13,0-9.1
			c0.43-1.45,1.13-2.81,2.05-4.01c0.93-1.19,2.11-2.16,3.45-2.84c3.09-1.44,6.66-1.44,9.74,0c1.35,0.69,2.54,1.66,3.49,2.84
			c0.94,1.19,1.65,2.55,2.09,4.01C129.07,48.4,129.07,51.57,128.16,54.53z M123.52,46.91c-0.24-0.94-0.64-1.84-1.19-2.64
			c-0.51-0.75-1.18-1.37-1.96-1.83c-0.82-0.46-1.74-0.7-2.68-0.68c-0.93-0.02-1.84,0.22-2.64,0.68c-0.77,0.46-1.42,1.09-1.92,1.83
			c-0.54,0.81-0.95,1.7-1.19,2.64c-0.53,2.02-0.53,4.13,0,6.15c0.24,0.94,0.64,1.84,1.19,2.64c0.5,0.74,1.16,1.37,1.92,1.83
			c0.8,0.47,1.72,0.7,2.64,0.68c0.94,0.02,1.86-0.22,2.68-0.68c0.78-0.46,1.45-1.08,1.96-1.83c0.54-0.81,0.95-1.7,1.19-2.64
			C124.05,51.05,124.05,48.93,123.52,46.91z"/>
		<path class="st3" d="M148.27,51.57v10.28h-4.71v-9.96c0.1-1.11-0.21-2.22-0.88-3.11c-0.51-0.6-1.25-0.95-2.03-0.95
			c-0.77,0-1.53,0.21-2.19,0.59c-0.58,0.32-1.13,0.69-1.65,1.1v12.33h-4.71V37.87h4.71v7.8c0.63-0.46,1.33-0.84,2.07-1.11
			c0.93-0.33,1.91-0.49,2.9-0.47c1.02-0.03,2.04,0.16,2.98,0.54c0.78,0.33,1.47,0.85,2.01,1.51c0.55,0.69,0.94,1.5,1.15,2.36
			C148.17,49.5,148.29,50.53,148.27,51.57z"/>
		<path class="st3" d="M168.77,53.11c0,1.13-0.18,2.25-0.54,3.33c-0.35,1.07-0.91,2.07-1.64,2.93c-0.75,0.88-1.69,1.59-2.73,2.09
			c-1.2,0.55-2.51,0.82-3.83,0.79c-1.33,0.03-2.64-0.24-3.85-0.79c-1.04-0.5-1.96-1.21-2.71-2.09c-0.73-0.86-1.29-1.86-1.64-2.93
			c-0.36-1.07-0.54-2.2-0.54-3.33c0-1.12,0.18-2.24,0.54-3.31c0.35-1.06,0.91-2.05,1.64-2.9c0.76-0.87,1.69-1.57,2.73-2.05
			c2.45-1.03,5.21-1.03,7.66,0c1.05,0.48,1.98,1.18,2.73,2.05c0.73,0.85,1.29,1.83,1.64,2.9C168.59,50.87,168.77,51.99,168.77,53.11
			z M163.9,51.06c-0.16-0.6-0.43-1.17-0.79-1.68c-0.34-0.46-0.79-0.84-1.3-1.12c-1.12-0.55-2.44-0.55-3.56,0
			c-0.51,0.27-0.95,0.65-1.29,1.12c-0.37,0.51-0.63,1.07-0.79,1.68c-0.36,1.35-0.36,2.77,0,4.12c0.16,0.6,0.42,1.17,0.77,1.68
			c0.33,0.47,0.77,0.86,1.28,1.13c0.56,0.29,1.19,0.43,1.82,0.41c0.62,0.01,1.23-0.13,1.78-0.41c0.51-0.27,0.96-0.66,1.3-1.13
			c0.36-0.51,0.63-1.08,0.79-1.68C164.26,53.83,164.26,52.41,163.9,51.06z"/>
		<path class="st3" d="M185.26,54.63c0.31,0.68,0.46,1.43,0.45,2.18c0.06,1.66-0.76,3.23-2.16,4.12c-0.73,0.47-1.53,0.8-2.37,0.99
			c-0.96,0.22-1.93,0.33-2.91,0.32c-1.75,0.08-3.48-0.33-5.02-1.17c-1.21-0.71-2.22-1.72-2.93-2.93l3.49-2.12
			c0.41,0.77,0.99,1.43,1.71,1.92c1.52,0.9,3.38,1.02,5,0.32c0.49-0.22,0.8-0.7,0.81-1.24c-0.04-0.56-0.36-1.07-0.86-1.33
			c-1-0.53-2.08-0.87-3.2-1.01c-0.85-0.15-1.69-0.37-2.5-0.67c-0.7-0.24-1.35-0.6-1.92-1.06c-0.52-0.42-0.93-0.95-1.22-1.55
			c-0.3-0.68-0.45-1.41-0.43-2.16c-0.02-1.49,0.7-2.89,1.92-3.74c1.53-1.03,3.35-1.54,5.2-1.44c1.61-0.08,3.22,0.25,4.67,0.95
			c1.06,0.55,1.97,1.35,2.66,2.32l-3.31,2.27c-0.45-0.59-1.01-1.08-1.65-1.44c-0.73-0.4-1.55-0.6-2.37-0.58
			c-0.73-0.07-1.45,0.09-2.09,0.46c-0.37,0.27-0.58,0.71-0.58,1.17c-0.03,0.51,0.26,0.98,0.72,1.19c0.86,0.35,1.75,0.6,2.66,0.76
			c0.96,0.19,1.9,0.45,2.82,0.76c0.76,0.25,1.47,0.62,2.1,1.1C184.5,53.45,184.95,54,185.26,54.63L185.26,54.63z"/>
		<path class="st3" d="M199,60.49c-0.78,0.52-1.62,0.95-2.5,1.28c-0.89,0.33-1.84,0.49-2.79,0.49c-0.6,0-1.19-0.08-1.76-0.25
			c-0.56-0.16-1.07-0.43-1.53-0.79c-0.46-0.39-0.83-0.87-1.08-1.42c-0.29-0.67-0.43-1.4-0.41-2.14V40.03h4.67v4.49h4.21v3.6h-4.21
			v8.85c-0.05,0.41,0.09,0.83,0.38,1.13c0.2,0.18,0.46,0.29,0.74,0.31c0.49,0,0.97-0.13,1.4-0.36c0.42-0.22,0.82-0.47,1.19-0.76
			L199,60.49z"/>
	</g>
</g>
</svg>
